# xmcd CD database file
#
# Track frame offsets:
#	150
#	8700
#	25132
#	25644
#	42406
#	62386
#	82440
#	108069
#	138777
#	150957
#	168262
#	173230
#	198337
#	223161
#	227088
#
# Disc length: 3101 seconds
#
# Revision: 3
# Processed by: cddbd v1.5.2PL0 Copyright (c) Steve Scherf et al.
# Submitted via: CDex 1.70beta2
#
DISCID=b40c1b0f
DTITLE=SOIL&"PIMP" SESSIONS - Pimp Master
DYEAR=2005
DGENRE=Jazz
TTITLE0=Pimp Master
TTITLE1=No Taboo
TTITLE2=Filter
TTITLE3=Suffocation
TTITLE4=Stinger
TTITLE5=Waltz For Goddess
TTITLE6=Avalanche
TTITLE7=A Wheel Within A Wheel
TTITLE8=J.D.F #
TTITLE9=Low Life
TTITLE10=No Matter
TTITLE11=Mo' Better Blues
TTITLE12=Wasted Time
TTITLE13=Master Of Pimp
TTITLE14=閃く刃
EXTD=YEAR: 2005
EXTT0=
EXTT1=
EXTT2=
EXTT3=
EXTT4=
EXTT5=
EXTT6=
EXTT7=
EXTT8=
EXTT9=
EXTT10=
EXTT11=
EXTT12=
EXTT13=
EXTT14=
PLAYORDER=
